<svg xmlns="http://www.w3.org/2000/svg" viewBox="0 0 180 140" fill="none">
  <title>Goose On — location goose</title>
  <path d="M21 122c36 3 92 3 138 0" stroke="#ECE5E6" stroke-width="3" stroke-linecap="round"/>
  <g stroke="#252525" stroke-width="5.5" stroke-linecap="round" stroke-linejoin="round">
    <path d="M42 58c-10 5-15 17-14 32l2 20h37l2-31c0-12-8-21-20-22Z" fill="#EFB0BF"/>
    <path d="M39 61c5 6 11 8 20 8"/>
    <path d="M36 92h26v12H36Z" fill="#F8DDE4"/>
    <path d="M59 110c-9-16-2-32 16-39l15 7-1-31c-1-20 12-34 30-34 19 0 31 13 29 30-1 12-10 18-17 26-4 6-2 12 7 18 18 11 18 27 3 35-19 9-64 6-82-12Z" fill="#fff"/>
    <path d="M138 40c11-2 22 2 26 8-7 8-17 9-29 5Z" fill="#F3A842"/>
    <path d="M82 99c9 8 21 9 30 3"/>
    <path d="M86 116v9m32-8v8"/>
    <path d="M86 125l-8 2m40-2 8 2"/>
  </g>
  <circle cx="122" cy="34" r="3" fill="#252525"/>
  <circle cx="135" cy="33" r="2.4" fill="#252525"/>
  <ellipse cx="117" cy="50" rx="6" ry="3.5" fill="#F7DCE4"/>
  <g transform="rotate(3 109 88)" stroke="#252525" stroke-width="4" stroke-linecap="round" stroke-linejoin="round">
    <path d="M80 77 99 72l17 5 18-5v29l-18 5-17-5-19 5Z" fill="#FFF9FA"/>
    <path d="M99 72v29m17-24v29"/>
    <path d="M87 91c5-8 12-7 17-2 5 5 10 5 19-2" stroke="#E98FA6" stroke-width="3" stroke-dasharray="3 6"/>
    <circle cx="126" cy="84" r="3.5" fill="#F3A842" stroke="none"/>
  </g>
  <path d="M78 87c7-2 11 1 14 6m33-4c6-2 10 0 12 4" stroke="#252525" stroke-width="5" stroke-linecap="round"/>
</svg>
